<svg height="480pt" viewBox="-56 0 480 480" width="480pt" xmlns="http://www.w3.org/2000/svg"><path d="m367.894531 103.496094c-.039062-.699219-.175781-1.394532-.40625-2.054688-.089843-.257812-.152343-.503906-.265625-.753906-.386718-.871094-.929687-1.664062-1.597656-2.34375l-96-96c-.679688-.671875-1.476562-1.214844-2.351562-1.601562-.242188-.109376-.480469-.175782-.730469-.261719-.675781-.234375-1.378907-.375-2.09375-.417969-.136719.0273438-.28125-.0625-.449219-.0625h-224c-22.082031.0273438-39.9726562 17.917969-40 40v400c.0273438 22.082031 17.917969 39.972656 40 40h288c22.082031-.027344 39.972656-17.917969 40-40v-336c0-.175781-.089844-.328125-.105469-.503906zm-27.207031-7.496094h-60.6875c-4.417969 0-8-3.582031-8-8v-60.6875zm-12.6875 368h-288c-13.253906 0-24-10.746094-24-24v-400c0-13.253906 10.746094-24 24-24h216v72c0 13.253906 10.746094 24 24 24h72v328c0 13.253906-10.746094 24-24 24zm0 0"/><path d="m152 116.6875v-4.6875c0-8.835938-7.164062-16-16-16h-64c-8.835938 0-16 7.164062-16 16v64c0 8.835938 7.164062 16 16 16h64c8.835938 0 16-7.164062 16-16v-36.6875l21.65625-21.65625-11.3125-11.3125zm-16 59.3125h-64v-64h64v20.679688l-16 16-18.34375-18.34375-11.3125 11.3125 24 24c3.125 3.121093 8.1875 3.121093 11.3125 0l10.34375-10.34375zm0 0"/><path d="m152 228.6875v-4.6875c0-8.835938-7.164062-16-16-16h-64c-8.835938 0-16 7.164062-16 16v64c0 8.835938 7.164062 16 16 16h64c8.835938 0 16-7.164062 16-16v-36.6875l21.65625-21.65625-11.3125-11.3125zm-16 59.3125h-64v-64h64v20.679688l-16 16-18.34375-18.34375-11.3125 11.3125 24 24c3.125 3.121093 8.1875 3.121093 11.3125 0l10.34375-10.34375zm0 0"/><path d="m162.34375 330.34375-10.34375 10.34375v-4.6875c0-8.835938-7.164062-16-16-16h-64c-8.835938 0-16 7.164062-16 16v64c0 8.835938 7.164062 16 16 16h64c8.835938 0 16-7.164062 16-16v-36.6875l21.65625-21.65625zm-26.34375 69.65625h-64v-64h64v20.679688l-16 16-18.34375-18.34375-11.3125 11.3125 24 24c3.125 3.121093 8.1875 3.121093 11.3125 0l10.34375-10.34375zm0 0"/><path d="m216 176h80v16h-80zm0 0"/><path d="m216 128h80v16h-80zm0 0"/><path d="m216 288h80v16h-80zm0 0"/><path d="m216 240h80v16h-80zm0 0"/><path d="m216 400h80v16h-80zm0 0"/><path d="m216 352h80v16h-80zm0 0"/></svg>